<svg width="25" height="24" viewBox="0 0 25 24" fill="none" xmlns="http://www.w3.org/2000/svg">
<path d="M23.0615 11.3684V23.3684C23.0615 23.7171 22.7831 24 22.4402 24H11.2574V14.5263C11.2574 14.1777 10.9791 13.8947 10.6362 13.8947H5.66603C5.32309 13.8947 5.04477 14.1777 5.04477 14.5263V24H2.5597C2.21676 24 1.93844 23.7171 1.93844 23.3684V11.3684H2.14967C3.05672 11.3684 3.88921 10.9168 4.40486 10.2C4.41729 10.2126 4.42661 10.2316 4.43593 10.2474C4.97021 10.9579 5.78097 11.3684 6.66316 11.3684H7.44596C8.38718 11.3684 9.22278 10.8947 9.73222 10.1621C9.7726 10.2126 9.81298 10.2663 9.85647 10.3168C10.4436 10.9863 11.2885 11.3684 12.1707 11.3684H12.8292C13.7114 11.3684 14.5563 10.9863 15.1434 10.3168C15.1869 10.2663 15.2273 10.2126 15.2677 10.1621C15.7771 10.8947 16.6127 11.3684 17.554 11.3684H18.3367C19.2189 11.3684 20.0297 10.9579 20.564 10.2474C20.5733 10.2316 20.5826 10.2126 20.595 10.2C21.1107 10.9168 21.9432 11.3684 22.8502 11.3684H23.0615ZM19.9551 19.5789V14.5263C19.9551 14.1777 19.6768 13.8947 19.3339 13.8947H14.985C14.6421 13.8947 14.3638 14.1777 14.3638 14.5263V19.5789C14.3638 19.9276 14.6421 20.2105 14.985 20.2105H19.3339C19.6768 20.2105 19.9551 19.9276 19.9551 19.5789ZM4.39213 0C3.90102 0 3.45619 0.294 3.25676 0.75L0.136766 7.88526C-0.088132 8.40158 -0.0337711 8.96842 0.28587 9.432C0.586563 9.86779 1.09631 10.1053 1.61973 10.1053H2.14967C2.84548 10.1053 3.46054 9.62842 3.64692 8.94947L5.08515 3.67895L6.0916 0H4.39213ZM7.38072 0L5.16591 8.10316C5.03545 8.58316 5.13174 9.08526 5.42684 9.48316C5.72195 9.87789 6.17236 10.1053 6.66316 10.1053H7.44596C8.24118 10.1053 8.90283 9.5021 8.9898 8.7L9.94345 0H7.38072ZM13.8077 0H11.1922L10.3162 8.0021C10.2603 8.53579 10.428 9.07263 10.7822 9.47368C11.1394 9.88105 11.6333 10.1053 12.1707 10.1053H12.8292C13.3666 10.1053 13.8605 9.88105 14.2178 9.47368C14.5719 9.07263 14.7396 8.53579 14.6837 8.0021L13.8077 0ZM17.6192 0H15.0565L16.0101 8.7C16.0971 9.5021 16.7587 10.1053 17.554 10.1053H18.3367C18.8275 10.1053 19.278 9.87789 19.5731 9.48316C19.8682 9.08526 19.9645 8.58316 19.834 8.10316L17.6192 0ZM21.7431 0.75C21.5437 0.294 21.0986 0 20.6078 0H18.9083L19.9148 3.67895L21.353 8.94947C21.5394 9.62842 22.1544 10.1053 22.8502 10.1053H23.3802C23.9039 10.1053 24.4137 9.86779 24.714 9.432C25.034 8.96842 25.088 8.40126 24.8631 7.88526L21.7431 0.75Z" fill="#5957C5"/>
</svg>
