<svg width="16" height="20" viewBox="0 0 16 20" fill="none" xmlns="http://www.w3.org/2000/svg">
<g clip-path="url(#clip0_522_22295)">
<path d="M12.8489 10.0444C12.0742 9.36351 11.1618 8.84247 10.1634 8.53459C11.3741 7.77672 12.189 6.39716 12.189 4.82814C12.189 2.43612 10.3125 0.5 7.99426 0.5C5.67598 0.5 3.79954 2.44204 3.79954 4.82814C3.79954 6.39716 4.60865 7.77672 5.82517 8.53459C4.83818 8.84247 3.93726 9.35759 3.16832 10.0266C2.82001 10.3221 2.44357 10.6975 2.08435 11.1682C1.00842 12.5797 0.679036 14.0771 0.563122 14.9469C0.522953 15.2725 0.5 15.61 0.5 15.9475V16.3501C0.5 18.0908 1.86572 19.5 3.55279 19.5H12.4472C14.1343 19.5 15.5 18.0908 15.5 16.3501V15.9475C15.5 15.61 15.477 15.2725 15.4369 14.9469C15.36 14.3275 15.1666 13.3619 14.6243 12.3109C14.0471 11.1907 13.3229 10.4571 12.8489 10.0444ZM4.7062 4.82814C4.7062 2.96307 6.17521 1.44734 7.98278 1.44734C9.79036 1.44734 11.2594 2.96307 11.2594 4.82814C11.2594 6.69321 9.88791 8.10237 8.17215 8.20302H7.79342C6.07766 8.10237 4.7062 6.62808 4.7062 4.82814ZM14.5704 16.3501C14.5704 17.5639 13.6121 18.5527 12.4357 18.5527H3.54132C2.36496 18.5527 1.40666 17.5639 1.40666 16.3501V15.9475C1.40666 12.2706 4.25287 9.26285 7.79342 9.15628C7.85654 9.1622 7.9254 9.1622 7.98852 9.1622C8.05165 9.1622 8.1205 9.1622 8.18363 9.15628C11.7242 9.26285 14.5704 12.2706 14.5704 15.9475V16.3501Z" fill="black"/>
</g>
<defs>
<clipPath id="clip0_522_22295">
<rect width="15" height="19" fill="white" transform="translate(0.5 0.5)"/>
</clipPath>
</defs>
</svg>
