<svg width="16" height="18" viewBox="0 0 16 18" fill="none" xmlns="http://www.w3.org/2000/svg">
<g clip-path="url(#clip0_522_22272)">
<path d="M6.33333 6.16667H1C0.448667 6.16667 0 5.68996 0 5.10417V1.5625C0 0.976708 0.448667 0.5 1 0.5H6.33333C6.88467 0.5 7.33333 0.976708 7.33333 1.5625V5.10417C7.33333 5.68996 6.88467 6.16667 6.33333 6.16667ZM1 1.20833C0.816667 1.20833 0.666667 1.367 0.666667 1.5625V5.10417C0.666667 5.29967 0.816667 5.45833 1 5.45833H6.33333C6.51667 5.45833 6.66667 5.29967 6.66667 5.10417V1.5625C6.66667 1.367 6.51667 1.20833 6.33333 1.20833H1Z" fill="black"/>
<path d="M6.33333 17.5002H1C0.448667 17.5002 0 17.0235 0 16.4377V8.646C0 8.0602 0.448667 7.5835 1 7.5835H6.33333C6.88467 7.5835 7.33333 8.0602 7.33333 8.646V16.4377C7.33333 17.0235 6.88467 17.5002 6.33333 17.5002ZM1 8.29183C0.816667 8.29183 0.666667 8.4505 0.666667 8.646V16.4377C0.666667 16.6332 0.816667 16.7918 1 16.7918H6.33333C6.51667 16.7918 6.66667 16.6332 6.66667 16.4377V8.646C6.66667 8.4505 6.51667 8.29183 6.33333 8.29183H1Z" fill="black"/>
<path d="M14.9993 17.5002H9.66602C9.11468 17.5002 8.66602 17.0235 8.66602 16.4377V12.896C8.66602 12.3102 9.11468 11.8335 9.66602 11.8335H14.9993C15.5507 11.8335 15.9993 12.3102 15.9993 12.896V16.4377C15.9993 17.0235 15.5507 17.5002 14.9993 17.5002ZM9.66602 12.5418C9.48268 12.5418 9.33268 12.7005 9.33268 12.896V16.4377C9.33268 16.6332 9.48268 16.7918 9.66602 16.7918H14.9993C15.1827 16.7918 15.3327 16.6332 15.3327 16.4377V12.896C15.3327 12.7005 15.1827 12.5418 14.9993 12.5418H9.66602Z" fill="black"/>
<path d="M14.9993 10.4167H9.66602C9.11468 10.4167 8.66602 9.93996 8.66602 9.35417V1.5625C8.66602 0.976708 9.11468 0.5 9.66602 0.5H14.9993C15.5507 0.5 15.9993 0.976708 15.9993 1.5625V9.35417C15.9993 9.93996 15.5507 10.4167 14.9993 10.4167ZM9.66602 1.20833C9.48268 1.20833 9.33268 1.367 9.33268 1.5625V9.35417C9.33268 9.54967 9.48268 9.70833 9.66602 9.70833H14.9993C15.1827 9.70833 15.3327 9.54967 15.3327 9.35417V1.5625C15.3327 1.367 15.1827 1.20833 14.9993 1.20833H9.66602Z" fill="black"/>
</g>
<defs>
<clipPath id="clip0_522_22272">
<rect width="16" height="17" fill="black" transform="translate(0 0.5)"/>
</clipPath>
</defs>
</svg>
