<svg width="20" height="20" viewBox="0 0 20 20" fill="none" xmlns="http://www.w3.org/2000/svg">
<path d="M17.2972 9.23804C17.8829 8.82649 18.2707 8.14188 18.2707 7.37022C18.2707 6.10785 17.2497 5.08688 15.9873 5.08688C14.725 5.08688 13.704 6.10785 13.704 7.37022C13.704 8.14188 14.0879 8.82649 14.6775 9.23804C14.1749 9.41216 13.7159 9.68126 13.3281 10.0295C12.7938 9.57441 12.1646 9.22617 11.4761 9.02039C12.311 8.51387 12.873 7.59182 12.873 6.54315C12.873 4.94442 11.5789 3.65039 9.98021 3.65039C8.38148 3.65039 7.08746 4.94837 7.08746 6.54315C7.08746 7.59182 7.64543 8.51387 8.48437 9.02039C7.80372 9.22617 7.18243 9.57045 6.65216 10.0176C6.26435 9.6773 5.81322 9.41216 5.31856 9.242C5.90423 8.83045 6.29205 8.14584 6.29205 7.37417C6.29205 6.11181 5.27107 5.09083 4.00871 5.09083C2.74634 5.09083 1.72537 6.11181 1.72537 7.37417C1.72537 8.14584 2.10922 8.83045 2.69885 9.242C1.12782 9.78415 0 11.276 0 13.0291V13.2903C0 13.2982 0.00791452 13.3061 0.015829 13.3061H4.85556C4.82786 13.5238 4.81203 13.7493 4.81203 13.9749V14.244C4.81203 15.4074 5.75386 16.3492 6.91729 16.3492H13.051C14.2145 16.3492 15.1563 15.4074 15.1563 14.244V13.9749C15.1563 13.7493 15.1405 13.5238 15.1128 13.3061H19.9842C19.9921 13.3061 20 13.2982 20 13.2903V13.0291C19.9921 11.2721 18.8682 9.78019 17.2972 9.23804ZM14.3372 7.36626C14.3372 6.45609 15.0772 5.71608 15.9873 5.71608C16.8975 5.71608 17.6375 6.45609 17.6375 7.36626C17.6375 8.26456 16.9133 8.99665 16.019 9.01644C16.0071 9.01644 15.9992 9.01644 15.9873 9.01644C15.9755 9.01644 15.9676 9.01644 15.9557 9.01644C15.0574 9.00061 14.3372 8.26852 14.3372 7.36626ZM7.7127 6.54315C7.7127 5.29661 8.72576 4.28355 9.9723 4.28355C11.2188 4.28355 12.2319 5.29661 12.2319 6.54315C12.2319 7.74616 11.2861 8.73151 10.1029 8.79879C10.0594 8.79879 10.0158 8.79879 9.9723 8.79879C9.92877 8.79879 9.88524 8.79879 9.84171 8.79879C8.65849 8.73151 7.7127 7.74616 7.7127 6.54315ZM2.34666 7.36626C2.34666 6.45609 3.08666 5.71608 3.99683 5.71608C4.907 5.71608 5.64701 6.45609 5.64701 7.36626C5.64701 8.26456 4.92283 8.99665 4.02849 9.01644C4.01662 9.01644 4.00871 9.01644 3.99683 9.01644C3.98496 9.01644 3.97705 9.01644 3.96518 9.01644C3.07083 9.00061 2.34666 8.26852 2.34666 7.36626ZM4.96636 12.669H0.641076C0.819153 10.9832 2.24377 9.66147 3.97309 9.6496C3.98101 9.6496 3.98892 9.6496 3.99683 9.6496C4.00475 9.6496 4.01266 9.6496 4.02058 9.6496C4.84369 9.65356 5.59557 9.95827 6.17729 10.4529C5.60744 11.0703 5.18401 11.8301 4.96636 12.669ZM14.5152 14.244C14.5152 15.0552 13.8544 15.7161 13.0431 15.7161H6.90938C6.09814 15.7161 5.43728 15.0552 5.43728 14.244V13.9749C5.43728 11.5174 7.40008 9.50714 9.84171 9.43591C9.88524 9.43986 9.93273 9.43987 9.97626 9.43987C10.0198 9.43987 10.0673 9.43986 10.1108 9.43591C12.5524 9.50714 14.5152 11.5174 14.5152 13.9749V14.244ZM14.9861 12.669C14.7685 11.834 14.353 11.0861 13.7871 10.4688C14.3728 9.96222 15.1326 9.65751 15.9636 9.6496C15.9715 9.6496 15.9794 9.6496 15.9873 9.6496C15.9953 9.6496 16.0032 9.6496 16.0111 9.6496C17.7404 9.66147 19.165 10.9832 19.3431 12.669H14.9861Z" fill="black"/>
</svg>
