<svg width="20" height="20" viewBox="0 0 20 20" fill="none" xmlns="http://www.w3.org/2000/svg">
<g id="policy (2) 1" clip-path="url(#clip0_522_22290)">
<path id="Vector" d="M17.7342 0.5H3.97704C3.04424 0.5 2.2855 1.28975 2.2855 2.26043V15.8585H0.736556C0.606115 15.8585 0.5 15.9689 0.5 16.1047V17.6793C0.5 18.6832 1.28475 19.5 2.24943 19.5H14.6917C15.6564 19.5 16.4411 18.6832 16.4411 17.6793V4.17594H19.2634C19.3939 4.17594 19.5 4.06558 19.5 3.92978V2.33797C19.5 1.32462 18.7077 0.5 17.7342 0.5ZM2.19322 19.0077C1.4911 19.0077 0.919426 18.4116 0.919426 17.6793V16.3508H12.8643V17.6793C12.8643 18.2028 13.0773 18.6754 13.4183 19.0077H2.19322ZM15.968 17.6793C15.968 18.4116 15.3951 19.0077 14.6917 19.0077C13.9883 19.0077 13.4154 18.4116 13.4154 17.6793V16.1047C13.4154 15.9689 13.3093 15.8585 13.1788 15.8585H2.75819V2.26043C2.75819 1.56093 3.30512 0.992313 3.97662 0.992313H16.5326C16.1853 1.32832 15.9676 1.80709 15.9676 2.33797V17.6793H15.968ZM18.9967 3.68362H16.3543V2.33797C16.3543 1.59581 16.947 0.992313 17.6755 0.992313C18.404 0.992313 18.9967 1.59581 18.9967 2.33797V3.68362ZM11.2436 3.13223C10.5583 2.97592 9.91066 2.67684 9.46691 2.31089C9.37338 2.23376 9.23623 2.23376 9.14269 2.31089C8.69894 2.67643 8.05135 2.97592 7.366 3.13223C7.25947 3.15644 7.18104 3.24547 7.17223 3.35213C7.08079 4.4582 7.23347 5.30621 7.63863 5.94457C7.97417 6.47258 8.47413 6.85166 9.21232 7.13761C9.2421 7.1491 9.27355 7.15484 9.30501 7.15484C9.33647 7.15484 9.36792 7.1491 9.3977 7.13761C10.1359 6.85166 10.6358 6.47258 10.9714 5.94457C11.3766 5.30621 11.5292 4.45861 11.4378 3.35213C11.4286 3.24547 11.3501 3.15644 11.2436 3.13223ZM10.5436 5.68447C10.2819 6.09678 9.88675 6.40283 9.30501 6.64284C8.72327 6.40283 8.32817 6.09678 8.06645 5.68447C7.74055 5.17164 7.60759 4.47748 7.6617 3.56711C8.28413 3.40383 8.85581 3.14126 9.30501 2.81305C9.75422 3.14126 10.3259 3.40383 10.9483 3.56711C11.002 4.47748 10.8695 5.17164 10.5436 5.68447ZM10.562 3.83624C10.6602 3.93224 10.6602 4.08814 10.562 4.18455L9.26391 5.45431C9.21483 5.50231 9.15024 5.52652 9.08607 5.52652C9.0219 5.52652 8.95731 5.50231 8.90823 5.45431L8.3374 4.89595C8.23925 4.79994 8.23925 4.64404 8.3374 4.54763C8.43554 4.45163 8.59492 4.45163 8.69349 4.54763L9.08649 4.93205L10.2068 3.83624C10.3045 3.74024 10.4635 3.74024 10.562 3.83624ZM11.9814 8.81804C11.9814 8.95384 11.8685 9.0642 11.7297 9.0642H4.97653C4.8377 9.0642 4.72488 8.95384 4.72488 8.81804C4.72488 8.68224 4.8377 8.57188 4.97653 8.57188H11.7301C11.869 8.57188 11.9814 8.68224 11.9814 8.81804ZM4.72488 10.4693C4.72488 10.3335 4.8377 10.2232 4.97653 10.2232H9.58603C9.72486 10.2232 9.83768 10.3335 9.83768 10.4693C9.83768 10.6051 9.72486 10.7155 9.58603 10.7155H4.97653C4.83729 10.7155 4.72488 10.6055 4.72488 10.4693ZM11.9814 11.582C11.9814 11.7178 11.8685 11.8281 11.7297 11.8281H4.97653C4.8377 11.8281 4.72488 11.7178 4.72488 11.582C4.72488 11.4462 4.8377 11.3358 4.97653 11.3358H11.7301C11.869 11.3358 11.9814 11.4458 11.9814 11.582ZM4.72488 13.2333C4.72488 13.0975 4.8377 12.9871 4.97653 12.9871H9.58603C9.72486 12.9871 9.83768 13.0975 9.83768 13.2333C9.83768 13.3691 9.72486 13.4794 9.58603 13.4794H4.97653C4.83729 13.4794 4.72488 13.3691 4.72488 13.2333ZM11.9814 14.3455C11.9814 14.4813 11.8685 14.5916 11.7297 14.5916H4.97653C4.8377 14.5916 4.72488 14.4813 4.72488 14.3455C4.72488 14.2097 4.8377 14.0993 4.97653 14.0993H11.7301C11.869 14.0993 11.9814 14.2093 11.9814 14.3455Z" fill="black"/>
</g>
<defs>
<clipPath id="clip0_522_22290">
<rect width="19" height="19" fill="white" transform="translate(0.5 0.5)"/>
</clipPath>
</defs>
</svg>
