<svg width="22" height="22" viewBox="0 0 22 22" fill="none" xmlns="http://www.w3.org/2000/svg">
<g clip-path="url(#clip0_1868_982)">
<path d="M21.3841 7.97901L14.6545 7.00117L11.6449 0.903087C11.3817 0.369673 10.6185 0.369415 10.3551 0.903087L7.34555 7.00117L0.616 7.97901C0.0274576 8.06456 -0.208914 8.79022 0.217422 9.20572L5.08694 13.9524L3.93736 20.6547C3.89104 20.9246 4.00194 21.1972 4.22348 21.3582C4.44495 21.5191 4.73851 21.5403 4.98085 21.4129L11 18.2485C17.553 21.6936 17.1029 21.4956 17.3537 21.4956C17.797 21.4956 18.1383 21.096 18.0626 20.6547L16.9131 13.9524L21.7827 9.20572C22.2085 8.79052 21.9731 8.06465 21.3841 7.97901Z" fill="#F7AC16"/>
<path d="M11 0.502441C10.7257 0.502441 10.476 0.658375 10.355 0.90334L7.34551 7.00142L0.616001 7.97926C0.0274576 8.06481 -0.208914 8.79047 0.217422 9.20598L5.08694 13.9526L3.93736 20.655C3.89104 20.9248 4.00194 21.1975 4.22348 21.3584C4.44495 21.5193 4.73851 21.5405 4.98085 21.4131L11 18.2488H11V0.502441Z" fill="#F2D422"/>
<path d="M0.616001 7.97886C0.0274576 8.06441 -0.208914 8.79007 0.217422 9.20557L5.08694 13.9522L3.93736 20.6546C3.89104 20.9244 4.00194 21.1971 4.22348 21.358C4.44495 21.5189 4.73851 21.5401 4.98085 21.4127L11 18.2484C17.553 21.6934 17.1029 21.4954 17.3537 21.4954C17.5028 21.4954 17.6513 21.449 17.7765 21.358L7.34551 7.00098L0.616001 7.97886Z" fill="#F7AC16"/>
<path d="M7.67241 13.1248C2.45627 8.04027 2.68048 8.31277 2.61048 8.04907C2.58199 7.94316 2.57615 7.81992 2.60713 7.68994L0.616001 7.97925C0.0274576 8.0648 -0.208914 8.79046 0.217422 9.20596L5.08694 13.9526L3.93736 20.655C3.89104 20.9249 4.00194 21.1975 4.22348 21.3585C4.44495 21.5193 4.73851 21.5406 4.98085 21.4132L6.75061 20.4828C6.56855 20.3188 6.48081 20.072 6.52283 19.8272L7.67241 13.1248Z" fill="#F48B19"/>
<path d="M0.216725 9.20601L5.08624 13.9527L3.93666 20.655C3.89034 20.9249 4.00124 21.1975 4.22279 21.3585C4.44425 21.5193 4.73781 21.5406 4.98015 21.4132L10.9993 18.2488C17.5523 21.6938 17.1022 21.4958 17.353 21.4958C17.7963 21.4958 18.1376 21.0962 18.0619 20.655L16.9124 13.9527L0.0346667 8.46875C-0.0494232 8.77018 0.0347526 9.02872 0.216725 9.20601Z" fill="#F2D422"/>
<path d="M0.216725 9.20601L5.08625 13.9527L3.93666 20.655C3.89034 20.9249 4.00124 21.1975 4.22279 21.3585C4.44425 21.5193 4.73781 21.5406 4.98016 21.4132L6.74991 20.4828C6.56785 20.3188 6.48011 20.072 6.52213 19.8272L7.67172 13.1248L4.3254 9.86291L0.0346667 8.46875C-0.0494232 8.77018 0.0347526 9.02872 0.216725 9.20601Z" fill="#EFB616"/>
<path d="M3.93812 20.655C3.8918 20.9248 4.00271 21.1975 4.22425 21.3584C4.44571 21.5193 4.73928 21.5405 4.98162 21.4131L11.0008 18.2488C17.5538 21.6938 17.1037 21.4958 17.3545 21.4958C17.7978 21.4958 18.1391 21.0962 18.0634 20.655L16.9139 13.9526L21.7834 9.20596C21.9794 9.01488 22.0499 8.72905 21.9654 8.46875L5.08771 13.9526L3.93812 20.655Z" fill="#F7AC16"/>
<path d="M3.93812 20.6546C3.8918 20.9245 4.00271 21.1971 4.22425 21.3581C4.44571 21.5189 4.73928 21.5402 4.98162 21.4128L6.75137 20.4824C6.56931 20.3184 6.48157 20.0716 6.5236 19.8267L7.67318 13.1244L7.66377 13.1152L5.08771 13.9523L3.93812 20.6546Z" fill="#F48B19"/>
<path d="M4.98007 21.4127L10.9992 18.2483C17.5522 21.6934 17.1021 21.4954 17.3529 21.4954C17.7962 21.4954 18.1375 21.0958 18.0618 20.6546L16.9123 13.9522L21.7818 9.20553C22.2077 8.79032 21.9722 8.06445 21.3832 7.97882L14.6537 7.00098L4.22266 21.358C4.44412 21.5189 4.73768 21.5401 4.98007 21.4127Z" fill="#F2D422"/>
<path d="M21.9639 8.46875L10.9992 12.0314L4.22266 21.3585C4.44412 21.5193 4.73768 21.5406 4.98002 21.4132L10.9992 18.2488C17.5522 21.6938 17.1021 21.4958 17.3529 21.4958C17.7962 21.4958 18.1375 21.0962 18.0618 20.655L16.9123 13.9527L21.7818 9.20601C21.9779 9.01488 22.0484 8.7291 21.9639 8.46875Z" fill="#F7AC16"/>
<path d="M16.9123 13.9526L10.9992 12.0312L4.22266 21.3583C4.44412 21.5192 4.73768 21.5405 4.98002 21.413L10.9992 18.2487C17.5522 21.6937 17.1021 21.4957 17.3529 21.4957C17.7962 21.4957 18.1375 21.0961 18.0618 20.6549L16.9123 13.9526Z" fill="#F2D422"/>
<path d="M4.22266 21.3583C4.44412 21.5192 4.73768 21.5405 4.98002 21.413L10.9992 18.2487C17.5522 21.6937 17.1021 21.4957 17.3529 21.4957C17.502 21.4957 17.6504 21.4494 17.7757 21.3583L10.9992 12.0312L4.22266 21.3583Z" fill="#F7AC16"/>
<path d="M10.9992 12.0313L10.9992 12.0312L4.22266 21.3583C4.44412 21.5192 4.73768 21.5405 4.98002 21.413L10.9992 18.2487H10.9992V12.0313Z" fill="#F2D422"/>
<path d="M6.88874 17.689L4.22266 21.3585C4.44412 21.5194 4.73768 21.5406 4.98002 21.4132L6.74978 20.4828C6.56772 20.3188 6.47998 20.072 6.522 19.8272L6.88874 17.689Z" fill="#EFB616"/>
</g>
<defs>
<clipPath id="clip0_1868_982">
<rect width="22" height="22" fill="white"/>
</clipPath>
</defs>
</svg>
