<svg width="22" height="23" viewBox="0 0 22 23" fill="none" xmlns="http://www.w3.org/2000/svg">
<circle cx="11" cy="11.5" r="11" fill="#5957C5"/>
<path d="M7.90799 17.4017L4.80806 19.0926C4.62615 19.1918 4.46266 19.3137 4.31055 19.4466C6.11789 20.9705 8.45097 21.8898 11.0001 21.8898C13.5304 21.8898 15.8485 20.9842 17.6508 19.4811C17.4846 19.3407 17.3042 19.2145 17.1043 19.1149L13.7848 17.4554C13.3559 17.2409 13.085 16.8026 13.085 16.3231V15.0208C13.1783 14.9145 13.2849 14.7781 13.399 14.617C13.8514 13.9779 14.1937 13.275 14.4309 12.5375C14.8567 12.4062 15.1703 12.013 15.1703 11.5456V10.1554C15.1703 9.84964 15.0343 9.57638 14.8229 9.38506V7.37542C14.8229 7.37542 15.2358 4.24805 11.0005 4.24805C6.76516 4.24805 7.17799 7.37542 7.17799 7.37542V9.38506C6.96628 9.57638 6.83064 9.84964 6.83064 10.1554V11.5456C6.83064 11.9118 7.02313 12.2341 7.31129 12.4203C7.65864 13.9324 8.5682 15.0208 8.5682 15.0208V16.291C8.5678 16.7536 8.31454 17.1798 7.90799 17.4017Z" fill="#F9FAFD"/>
<path d="M11.1782 1.11288C5.44135 1.01486 0.710888 5.58615 0.612876 11.323C0.557205 14.5758 2.007 17.4993 4.31538 19.4435C4.46632 19.3118 4.62824 19.191 4.80819 19.093L7.90812 17.4021C8.31467 17.1802 8.56794 16.754 8.56794 16.2906V15.0204C8.56794 15.0204 7.65799 13.9321 7.31103 12.4199C7.02326 12.2337 6.83038 11.9119 6.83038 11.5453V10.1551C6.83038 9.84929 6.96642 9.57603 7.17773 9.38471V7.37507C7.17773 7.37507 6.7649 4.2477 11.0002 4.2477C15.2355 4.2477 14.8227 7.37507 14.8227 7.37507V9.38471C15.0344 9.57603 15.17 9.84929 15.17 10.1551V11.5453C15.17 12.0126 14.8564 12.4058 14.4306 12.5372C14.1934 13.2746 13.8512 13.9776 13.3988 14.6166C13.2847 14.7777 13.178 14.9142 13.0847 15.0204V16.3228C13.0847 16.8023 13.3556 17.241 13.7845 17.455L17.104 19.1146C17.3032 19.2142 17.4831 19.34 17.649 19.48C19.8876 17.613 21.3338 14.8216 21.3875 11.6782C21.4863 5.94135 16.9154 1.21089 11.1782 1.11288Z" fill="#5957C5"/>
</svg>
