<svg width="40" height="40" viewBox="0 0 40 40" fill="none" xmlns="http://www.w3.org/2000/svg">
<path d="M33.9178 6.08217C30.2084 2.47961 25.2304 0.481291 20.0596 0.519081C14.8888 0.556871 9.94052 2.62773 6.28413 6.28413C2.62773 9.94052 0.556871 14.8888 0.519081 20.0596C0.481291 25.2304 2.47961 30.2084 6.08217 33.9178C9.79162 37.5204 14.7696 39.5187 19.9404 39.4809C25.1112 39.4431 30.0595 37.3723 33.7159 33.7159C37.3723 30.0595 39.4431 25.1112 39.4809 19.9404C39.5187 14.7696 37.5204 9.79162 33.9178 6.08217ZM20 37.3781C10.4175 37.3781 2.62194 29.5825 2.62194 20C2.62194 10.4175 10.4175 2.62194 20 2.62194C29.5825 2.62194 37.3781 10.4175 37.3781 20C37.3781 29.5825 29.5825 37.3781 20 37.3781Z" fill="black"/>
<path d="M19.9994 5.00513C11.7317 5.00513 5.00504 11.7318 5.00504 19.9995C5.00504 28.2671 11.7317 34.9938 19.9994 34.9938C28.267 34.9938 34.9937 28.2671 34.9937 19.9995C34.9937 11.7318 28.267 5.00513 19.9994 5.00513ZM19.9994 32.687C13.002 32.687 7.31186 26.9968 7.31186 19.9995C7.31186 13.0021 13.002 7.31195 19.9994 7.31195C26.9967 7.31195 32.6869 13.0021 32.6869 19.9995C32.6869 26.9968 26.9967 32.687 19.9994 32.687Z" fill="black"/>
<path d="M27.0834 16.5683L23.3802 16.03L21.7247 12.6751C21.566 12.3534 21.3204 12.0825 21.0157 11.8931C20.7111 11.7037 20.3595 11.6033 20.0007 11.6033C19.642 11.6033 19.2904 11.7037 18.9857 11.8931C18.6811 12.0825 18.4355 12.3534 18.2768 12.6751L16.6212 16.03L12.918 16.5683C12.5632 16.6197 12.2298 16.7693 11.9555 17.0002C11.6812 17.2311 11.477 17.5342 11.3659 17.8751C11.2548 18.216 11.2413 18.5811 11.3268 18.9293C11.4123 19.2775 11.5935 19.5949 11.85 19.8455L14.5289 22.4599L13.8969 26.1508C13.8362 26.5043 13.8756 26.8678 14.0107 27.2001C14.1458 27.5324 14.3712 27.8202 14.6613 28.0311C14.9515 28.242 15.2949 28.3675 15.6527 28.3934C16.0104 28.4193 16.3683 28.3446 16.6858 28.1777L20.0007 26.4315L23.3126 28.1723C23.63 28.3392 23.9878 28.4138 24.3455 28.3879C24.7032 28.3621 25.0465 28.2366 25.3366 28.0259C25.6267 27.8151 25.8521 27.5273 25.9873 27.1952C26.1225 26.863 26.162 26.4997 26.1015 26.1462L25.4694 22.4553L28.1515 19.8455C28.4083 19.5951 28.5899 19.2779 28.6759 18.9297C28.7618 18.5815 28.7487 18.2163 28.6379 17.8752C28.5271 17.5341 28.3231 17.2307 28.0489 16.9995C27.7748 16.7683 27.4414 16.6184 27.0865 16.5667L27.0834 16.5683ZM23.7147 20.9474C23.4914 21.1649 23.3243 21.4334 23.2278 21.7299C23.1314 22.0263 23.1085 22.3418 23.1611 22.649L23.6993 25.7686L20.8981 24.2961C20.6223 24.1512 20.3154 24.0754 20.0038 24.0754C19.6922 24.0754 19.3853 24.1512 19.1095 24.2961L16.3052 25.7663L16.8435 22.6467C16.896 22.3396 16.8732 22.0244 16.7769 21.7281C16.6806 21.4318 16.5137 21.1633 16.2906 20.9458L14.0237 18.7367L17.1556 18.2838C17.4637 18.2384 17.7562 18.119 18.0079 17.9356C18.2596 17.7522 18.4629 17.5104 18.6005 17.2311L20.0007 14.3945L21.401 17.2311C21.5385 17.5104 21.7419 17.7522 21.9936 17.9356C22.2453 18.119 22.5377 18.2384 22.8458 18.2838L25.9777 18.739L23.7147 20.9474Z" fill="black"/>
</svg>
