<svg data-v-ff119fcb="" xmlns="http://www.w3.org/2000/svg" viewBox="0 0 24 24" class="cc-fill-green w-full h-full"><path data-v-ff119fcb="" d="M 20.59375 2 L 17.09375 5.5 L 15.1875 3.59375 C 14.3875 2.79375 13.20625 2.79375 12.40625 3.59375 L 9.90625 6.09375
L 8.90625 5.09375 L 7.5 6.5 L 17.5 16.5 L 18.90625 15.09375 L 17.90625 14.09375
L 20.40625 11.59375 C 21.20625 10.79375 21.20625 9.6125 20.40625 8.8125 L 18.5 6.90625
L 22 3.40625 L 20.59375 2 z M 6.40625 7.59375 L 5 9 L 6 10 L 3.59375 12.40625 C 2.79375 13.20625 2.79375 14.3875 3.59375 15.1875
L 5.5 17.09375 L 2 20.59375 L 3.40625 22 L 6.90625 18.5 L 8.8125 20.40625 C 9.6125 21.20625 10.79375 21.20625 11.59375 20.40625
L 14 18 L 15 19 L 16.40625 17.59375 L 6.40625 7.59375 z"></path></svg>