<svg width="20" height="17" viewBox="0 0 20 17" fill="none" xmlns="http://www.w3.org/2000/svg">
<path d="M1.36196 11.7663C0.962764 9.1715 0.563567 6.57676 0.16437 3.98195C0.0758419 3.40674 0.73032 3.01444 1.19586 3.36363C2.43959 4.29642 3.68325 5.22915 4.92697 6.16194C5.33647 6.46907 5.91988 6.36912 6.20377 5.94321L9.31 1.28384C9.63826 0.791455 10.3617 0.791455 10.69 1.28384L13.7962 5.94321C14.0801 6.36912 14.6635 6.469 15.073 6.16194C16.3167 5.22915 17.5604 4.29642 18.8041 3.36363C19.2696 3.01444 19.9241 3.40674 19.8357 3.98195C19.4365 6.57676 19.0373 9.1715 18.6381 11.7663H1.36196Z" fill="#FFB743"/>
<path d="M17.7367 16.0854H2.26203C1.76459 16.0854 1.36133 15.6821 1.36133 15.1846V13.2061H18.6374V15.1846C18.6374 15.6821 18.2341 16.0854 17.7367 16.0854Z" fill="#FFB743"/>
</svg>
